<svg width="24" height="24" viewBox="0 0 24 24" fill="none" xmlns="http://www.w3.org/2000/svg">
<path fill-rule="evenodd" clip-rule="evenodd" d="M7.345 4.01699C10.4389 3.67443 13.5611 3.67443 16.655 4.01699C18.368 4.20899 19.75 5.55799 19.951 7.27699C20.3176 10.415 20.3176 13.585 19.951 16.723C19.75 18.442 18.368 19.791 16.655 19.983C13.5611 20.3255 10.4389 20.3255 7.345 19.983C5.632 19.791 4.25 18.442 4.049 16.723C3.68246 13.5853 3.68246 10.4157 4.049 7.27799C4.15067 6.44286 4.53138 5.66653 5.12944 5.07483C5.72749 4.48313 6.50783 4.11073 7.344 4.01799M12 7.00699C12.1989 7.00699 12.3897 7.086 12.5303 7.22666C12.671 7.36731 12.75 7.55807 12.75 7.75699V11.25H16.243C16.4419 11.25 16.6327 11.329 16.7733 11.4697C16.914 11.6103 16.993 11.8011 16.993 12C16.993 12.1989 16.914 12.3897 16.7733 12.5303C16.6327 12.671 16.4419 12.75 16.243 12.75H12.75V16.243C12.75 16.4419 12.671 16.6327 12.5303 16.7733C12.3897 16.914 12.1989 16.993 12 16.993C11.8011 16.993 11.6103 16.914 11.4697 16.7733C11.329 16.6327 11.25 16.4419 11.25 16.243V12.75H7.757C7.55809 12.75 7.36732 12.671 7.22667 12.5303C7.08602 12.3897 7.007 12.1989 7.007 12C7.007 11.8011 7.08602 11.6103 7.22667 11.4697C7.36732 11.329 7.55809 11.25 7.757 11.25H11.25V7.75699C11.25 7.55807 11.329 7.36731 11.4697 7.22666C11.6103 7.086 11.8011 7.00699 12 7.00699Z" fill="currentColor"/>
</svg>
