<svg width="64" height="64" viewBox="0 0 64 64" fill="none" xmlns="http://www.w3.org/2000/svg">
<path fill-rule="evenodd" clip-rule="evenodd" d="M9.5 6.99823C9.5 3.13321 12.666 0 16.5714 0H47.4286C51.334 0 54.5 3.13321 54.5 6.99823V56.9877C54.5 63.2362 46.8544 66.3523 42.4081 61.9161L34.282 53.8086C33.0247 52.5542 30.9753 52.5542 29.7179 53.8087L21.5919 61.9161C17.1455 66.3523 9.5 63.2362 9.5 56.9877V6.99823ZM16.5714 3.81721C14.7962 3.81721 13.3571 5.2414 13.3571 6.99823V56.9877C13.3571 59.8279 16.8324 61.2444 18.8535 59.2279L26.9795 51.1204C29.7456 48.3606 34.2544 48.3606 37.0205 51.1204L45.1465 59.2279C47.1676 61.2444 50.6429 59.8279 50.6429 56.9877V6.99823C50.6429 5.2414 49.2038 3.81721 47.4286 3.81721H16.5714Z" fill="currentColor"/>
</svg>
