<svg width="24" height="25" viewBox="0 0 24 25" fill="none" xmlns="http://www.w3.org/2000/svg">
<path d="M17 3.83989C18.5083 4.71075 19.7629 5.96042 20.6398 7.46519C21.5167 8.96997 21.9854 10.6777 21.9994 12.4192C22.0135 14.1608 21.5725 15.8758 20.72 17.3946C19.8676 18.9133 18.6332 20.1831 17.1392 21.0782C15.6452 21.9733 13.9434 22.4627 12.2021 22.498C10.4608 22.5332 8.74055 22.1131 7.21155 21.2791C5.68256 20.4452 4.39787 19.2264 3.48467 17.7434C2.57146 16.2604 2.06141 14.5646 2.005 12.8239L2 12.4999L2.005 12.1759C2.061 10.4489 2.56355 8.76585 3.46364 7.29089C4.36373 5.81592 5.63065 4.59934 7.14089 3.75977C8.65113 2.92021 10.3531 2.48629 12.081 2.50033C13.8089 2.51437 15.5036 2.97589 17 3.83989ZM12 6.49989C11.7551 6.49992 11.5187 6.58985 11.3356 6.75261C11.1526 6.91537 11.0357 7.13964 11.007 7.38289L11 7.49989V12.4999L11.009 12.6309C11.0318 12.8044 11.0997 12.9689 11.206 13.1079L11.293 13.2079L14.293 16.2079L14.387 16.2899C14.5624 16.426 14.778 16.4998 15 16.4998C15.222 16.4998 15.4376 16.426 15.613 16.2899L15.707 16.2069L15.79 16.1129C15.9261 15.9375 15.9999 15.7219 15.9999 15.4999C15.9999 15.2779 15.9261 15.0623 15.79 14.8869L15.707 14.7929L13 12.0849V7.49989L12.993 7.38289C12.9643 7.13964 12.8474 6.91537 12.6644 6.75261C12.4813 6.58985 12.2449 6.49992 12 6.49989Z" fill="currentColor"/>
</svg>
