<svg width="22" height="21" viewBox="0 0 22 21" fill="none" xmlns="http://www.w3.org/2000/svg">
<path fill-rule="evenodd" clip-rule="evenodd" d="M5.421 3.871C3.96938 4.53425 2.90625 6.11275 2.90625 7.99487C2.90625 9.91725 3.69375 11.3995 4.82075 12.67C5.75087 13.7165 6.87613 14.5845 7.97338 15.4297C8.23471 15.631 8.49283 15.8317 8.74775 16.0317C9.208 16.3949 9.61837 16.7125 10.0147 16.9444C10.4111 17.1762 10.7288 17.2812 11 17.2812C11.2712 17.2812 11.5898 17.1762 11.9853 16.9444C12.3816 16.7125 12.792 16.3949 13.2523 16.0317C13.5072 15.8311 13.7653 15.6307 14.0266 15.4306C15.1239 14.5836 16.2491 13.7165 17.1793 12.67C18.3071 11.3995 19.0938 9.91725 19.0938 7.99487C19.0938 6.11362 18.0306 4.53425 16.579 3.871C15.1685 3.22612 13.2732 3.39675 11.4725 5.26837C11.4113 5.33189 11.3379 5.38241 11.2567 5.41691C11.1755 5.45142 11.0882 5.4692 11 5.4692C10.9118 5.4692 10.8245 5.45142 10.7433 5.41691C10.6621 5.38241 10.5887 5.33189 10.5275 5.26837C8.72675 3.39675 6.8315 3.22612 5.421 3.871ZM11 3.9025C8.977 2.09125 6.71163 1.8375 4.875 2.67662C2.93775 3.56475 1.59375 5.62275 1.59375 7.99575C1.59375 10.3276 2.565 12.1074 3.83987 13.5424C4.86012 14.6912 6.10875 15.6529 7.21212 16.5016C7.46296 16.6941 7.70387 16.8814 7.93487 17.0634C8.38375 17.4169 8.865 17.7931 9.35237 18.0784C9.83975 18.3636 10.3962 18.5946 11 18.5946C11.6038 18.5946 12.1603 18.3627 12.6476 18.0784C13.1359 17.7931 13.6163 17.4169 14.0651 17.0634C14.2961 16.8814 14.537 16.6941 14.7879 16.5016C15.8904 15.6529 17.1399 14.6904 18.1601 13.5424C19.435 12.1074 20.4062 10.3276 20.4062 7.99575C20.4062 5.62275 19.0631 3.56475 17.125 2.67837C15.2884 1.83837 13.023 2.09212 11 3.9025Z" fill="currentColor"/>
</svg>
