<svg width="24" height="25" viewBox="0 0 24 25" fill="none" xmlns="http://www.w3.org/2000/svg">
    <path d="M13.51 3.63899C12.858 2.45399 11.142 2.45399 10.489 3.63899C9.63028 5.19938 8.92241 6.83814 8.375 8.53299C8.34918 8.5993 8.30377 8.65617 8.24481 8.69601C8.18585 8.73585 8.11615 8.75678 8.045 8.75599C6.57796 8.79412 5.1157 8.93985 3.67 9.19199C2.333 9.42499 1.744 11.029 2.76 12.022C2.888 12.1473 3.01733 12.272 3.148 12.396C4.12681 13.3228 5.16321 14.1869 6.251 14.983C6.30042 15.0158 6.33786 15.0638 6.35769 15.1197C6.37753 15.1756 6.37869 15.2364 6.361 15.293C5.81184 16.9407 5.41943 18.6365 5.189 20.358C4.999 21.782 6.507 22.656 7.684 22.052C9.11288 21.3197 10.4791 20.4712 11.769 19.515C11.8365 19.4672 11.9173 19.4416 12 19.4416C12.0827 19.4416 12.1634 19.4672 12.231 19.515C13.5201 20.4723 14.8864 21.3209 16.316 22.052C17.493 22.656 19.001 21.782 18.811 20.358C18.5809 18.6366 18.1888 16.9407 17.64 15.293C17.6223 15.2364 17.6235 15.1756 17.6433 15.1197C17.6631 15.0638 17.7006 15.0158 17.75 14.983C18.9825 14.0809 20.1488 13.0917 21.24 12.023C22.256 11.029 21.667 9.42499 20.33 9.19199C18.884 8.9398 17.4214 8.79408 15.954 8.75599C15.883 8.75657 15.8135 8.73555 15.7548 8.69572C15.696 8.6559 15.6508 8.59914 15.625 8.53299C15.0793 6.83749 14.3704 5.19857 13.51 3.63899Z" fill="currentColor"/>
</svg>
