<svg xmlns="http://www.w3.org/2000/svg" version="1.1" xmlns:xlink="http://www.w3.org/1999/xlink" xmlns:svgjs="http://svgjs.dev/svgjs" width="1000" height="1000"><g clip-path="url(#SvgjsClipPath1075)"><rect width="1000" height="1000" fill="#ffffff"></rect><g transform="matrix(7.865168539325842,0,0,7.865168539325842,150,150)"><svg xmlns="http://www.w3.org/2000/svg" version="1.1" xmlns:xlink="http://www.w3.org/1999/xlink" xmlns:svgjs="http://svgjs.dev/svgjs" width="89" height="89"><svg width="89" height="89" viewBox="0 0 89 89" fill="none" xmlns="http://www.w3.org/2000/svg">
<path d="M23.2816 19.2404C23.1411 18.1372 22.125 17.3529 21.0385 17.5903C15.3137 18.8414 10.1276 22.0296 6.31298 26.6843C2.0613 31.8724 -0.18401 38.5131 0.0118091 45.3205C0.207628 52.128 2.83065 58.6179 7.37296 63.5335C11.45 67.9457 16.813 70.8078 22.6024 71.701C23.6981 71.87 24.662 71.0294 24.7386 69.9234L24.9562 66.7823C25.0323 65.6845 24.2039 64.7422 23.1211 64.5457C19.0267 63.8026 15.2466 61.7238 12.346 58.5848C8.98468 54.9472 7.04365 50.1447 6.89874 45.1072C6.75384 40.0697 8.41537 35.1556 11.5616 31.3164C14.2788 28.0008 17.9363 25.6907 21.9846 24.6968C23.05 24.4352 23.8178 23.4489 23.6792 22.3606L23.2816 19.2404Z" fill="#D97474"></path>
<path d="M68.0564 20.4881C69.1096 20.1811 69.7259 19.0799 69.355 18.0475C67.1326 11.8628 62.7937 6.67217 57.1022 3.45498C50.841 -0.0842886 43.4559 -0.945282 36.5714 1.06141C29.6869 3.06809 23.8671 7.77809 20.3922 14.1552C17.2394 19.9411 16.2513 26.6693 17.5665 33.1039C17.7893 34.1936 18.9132 34.8124 19.9809 34.5012L22.8896 33.6533C23.9428 33.3463 24.5418 32.2491 24.3475 31.1694C23.5166 26.5537 24.2751 21.7635 26.5302 17.6249C29.1017 12.9058 33.4083 9.4204 38.5028 7.93545C43.5974 6.45051 49.0624 7.08764 53.6957 9.7067C57.7473 11.9969 60.8727 15.6387 62.5684 19.9866C62.9726 21.0227 64.08 21.6471 65.1478 21.3359L68.0564 20.4881Z" fill="#D97474"></path>
<path d="M45.099 62.5577C44.3525 63.3323 44.3475 64.5651 45.1475 65.2843C48.2309 68.0565 51.8965 70.0586 55.8626 71.1235C60.4412 72.3527 65.2534 72.288 69.7998 70.9361C74.3462 69.5841 78.4611 66.9942 81.7175 63.4351C84.9739 59.876 87.2531 55.4774 88.3187 50.6957C89.3842 45.9141 89.1972 40.9236 87.777 36.2423C86.3569 31.5609 83.7554 27.3593 80.2425 24.0734C76.7296 20.7874 72.4333 18.537 67.7994 17.5555C63.8035 16.7091 59.6821 16.8331 55.7549 17.9057C54.7065 18.1921 54.1631 19.316 54.5047 20.3478L55.4858 23.3116C55.8385 24.3771 56.9977 24.9329 58.0892 24.6714C60.8193 24.0175 63.6609 23.9763 66.4216 24.5611C69.8506 25.2874 73.0299 26.9527 75.6294 29.3843C78.229 31.8159 80.1541 34.9251 81.205 38.3893C82.2559 41.8535 82.3943 45.5464 81.6058 49.0848C80.8173 52.6232 79.1307 55.8782 76.721 58.512C74.3112 61.1457 71.2662 63.0622 67.9019 64.0627C64.5375 65.0631 60.9765 65.111 57.5883 64.2014C54.8607 63.4691 52.3251 62.1377 50.149 60.3065C49.2816 59.5766 47.9801 59.5678 47.1935 60.3841L45.099 62.5577Z" fill="#D97474"></path>
<path fill-rule="evenodd" clip-rule="evenodd" d="M62.5 76.5061V69H69.5V76.5061C69.5 84.9133 60.5039 89.3782 53.5719 86.5718C44.0596 82.7208 32.888 81.0154 24.2346 88.1938L19.7654 82.8062C31.5394 73.0391 46.0858 75.9892 56.1987 80.0834C59.4058 81.3817 62.5 79.0373 62.5 76.5061Z" fill="#D97474"></path>
</svg></svg></g></g><defs><clipPath id="SvgjsClipPath1075"><rect width="1000" height="1000" x="0" y="0" rx="500" ry="500"></rect></clipPath></defs></svg>